<svg xmlns="http://www.w3.org/2000/svg" viewBox="0 0 670 720" width="704" height="756">

    <style>
        text { font-family: -apple-system, BlinkMacSystemFont, "Segoe UI", Roboto, Helvetica, Arial, sans-serif; font-size: 14px; fill: #333; }
        .header-text { font-weight: 600; fill: #111; }
        .bg-header { fill: #f3f4f6; }
        .bg-row-even { fill: #ffffff; }
        .bg-row-odd { fill: #fafafa; }
        .border { stroke: #d1d5db; stroke-width: 1px; }
    </style>
    
  <rect x="0" y="0" width="670" height="36" class="bg-header" />
  <line x1="0" y1="36" x2="670" y2="36" class="border" />
  <text x="12" y="23.0" text-anchor="start" class="header-text">Label</text>
  <text x="220.0" y="23.0" text-anchor="middle" class="header-text">F1</text>
  <text x="305.0" y="23.0" text-anchor="middle" class="header-text">Précision</text>
  <text x="390.0" y="23.0" text-anchor="middle" class="header-text">Rappel</text>
  <text x="460.0" y="23.0" text-anchor="middle" class="header-text">FN</text>
  <text x="520.0" y="23.0" text-anchor="middle" class="header-text">FP</text>
  <text x="580.0" y="23.0" text-anchor="middle" class="header-text">TN</text>
  <text x="640.0" y="23.0" text-anchor="middle" class="header-text">TP</text>
  <rect x="0" y="36" width="670" height="36" class="bg-row-even" />
  <line x1="0" y1="72" x2="670" y2="72" class="border" />
  <text x="12" y="59.0" text-anchor="start" class="">Emo</text>
  <text x="220.0" y="59.0" text-anchor="middle" class="">0.662</text>
  <text x="305.0" y="59.0" text-anchor="middle" class="">0.623</text>
  <text x="390.0" y="59.0" text-anchor="middle" class="">0.707</text>
  <text x="460.0" y="59.0" text-anchor="middle" class="">117</text>
  <text x="520.0" y="59.0" text-anchor="middle" class="">171</text>
  <text x="580.0" y="59.0" text-anchor="middle" class="">211</text>
  <text x="640.0" y="59.0" text-anchor="middle" class="">282</text>
  <rect x="0" y="72" width="670" height="36" class="bg-row-odd" />
  <line x1="0" y1="108" x2="670" y2="108" class="border" />
  <text x="12" y="95.0" text-anchor="start" class="">Colere</text>
  <text x="220.0" y="95.0" text-anchor="middle" class="">0.461</text>
  <text x="305.0" y="95.0" text-anchor="middle" class="">0.496</text>
  <text x="390.0" y="95.0" text-anchor="middle" class="">0.431</text>
  <text x="460.0" y="95.0" text-anchor="middle" class="">165</text>
  <text x="520.0" y="95.0" text-anchor="middle" class="">127</text>
  <text x="580.0" y="95.0" text-anchor="middle" class="">364</text>
  <text x="640.0" y="95.0" text-anchor="middle" class="">125</text>
  <rect x="0" y="108" width="670" height="36" class="bg-row-even" />
  <line x1="0" y1="144" x2="670" y2="144" class="border" />
  <text x="12" y="131.0" text-anchor="start" class="">Degout</text>
  <text x="220.0" y="131.0" text-anchor="middle" class="">0.000</text>
  <text x="305.0" y="131.0" text-anchor="middle" class="">0.000</text>
  <text x="390.0" y="131.0" text-anchor="middle" class="">0.000</text>
  <text x="460.0" y="131.0" text-anchor="middle" class="">80</text>
  <text x="520.0" y="131.0" text-anchor="middle" class="">0</text>
  <text x="580.0" y="131.0" text-anchor="middle" class="">701</text>
  <text x="640.0" y="131.0" text-anchor="middle" class="">0</text>
  <rect x="0" y="144" width="670" height="36" class="bg-row-odd" />
  <line x1="0" y1="180" x2="670" y2="180" class="border" />
  <text x="12" y="167.0" text-anchor="start" class="">Joie</text>
  <text x="220.0" y="167.0" text-anchor="middle" class="">0.393</text>
  <text x="305.0" y="167.0" text-anchor="middle" class="">0.423</text>
  <text x="390.0" y="167.0" text-anchor="middle" class="">0.367</text>
  <text x="460.0" y="167.0" text-anchor="middle" class="">19</text>
  <text x="520.0" y="167.0" text-anchor="middle" class="">15</text>
  <text x="580.0" y="167.0" text-anchor="middle" class="">736</text>
  <text x="640.0" y="167.0" text-anchor="middle" class="">11</text>
  <rect x="0" y="180" width="670" height="36" class="bg-row-even" />
  <line x1="0" y1="216" x2="670" y2="216" class="border" />
  <text x="12" y="203.0" text-anchor="start" class="">Peur</text>
  <text x="220.0" y="203.0" text-anchor="middle" class="">0.235</text>
  <text x="305.0" y="203.0" text-anchor="middle" class="">0.154</text>
  <text x="390.0" y="203.0" text-anchor="middle" class="">0.500</text>
  <text x="460.0" y="203.0" text-anchor="middle" class="">2</text>
  <text x="520.0" y="203.0" text-anchor="middle" class="">11</text>
  <text x="580.0" y="203.0" text-anchor="middle" class="">766</text>
  <text x="640.0" y="203.0" text-anchor="middle" class="">2</text>
  <rect x="0" y="216" width="670" height="36" class="bg-row-odd" />
  <line x1="0" y1="252" x2="670" y2="252" class="border" />
  <text x="12" y="239.0" text-anchor="start" class="">Surprise</text>
  <text x="220.0" y="239.0" text-anchor="middle" class="">0.364</text>
  <text x="305.0" y="239.0" text-anchor="middle" class="">0.333</text>
  <text x="390.0" y="239.0" text-anchor="middle" class="">0.400</text>
  <text x="460.0" y="239.0" text-anchor="middle" class="">3</text>
  <text x="520.0" y="239.0" text-anchor="middle" class="">4</text>
  <text x="580.0" y="239.0" text-anchor="middle" class="">772</text>
  <text x="640.0" y="239.0" text-anchor="middle" class="">2</text>
  <rect x="0" y="252" width="670" height="36" class="bg-row-even" />
  <line x1="0" y1="288" x2="670" y2="288" class="border" />
  <text x="12" y="275.0" text-anchor="start" class="">Tristesse</text>
  <text x="220.0" y="275.0" text-anchor="middle" class="">0.150</text>
  <text x="305.0" y="275.0" text-anchor="middle" class="">0.115</text>
  <text x="390.0" y="275.0" text-anchor="middle" class="">0.214</text>
  <text x="460.0" y="275.0" text-anchor="middle" class="">11</text>
  <text x="520.0" y="275.0" text-anchor="middle" class="">23</text>
  <text x="580.0" y="275.0" text-anchor="middle" class="">744</text>
  <text x="640.0" y="275.0" text-anchor="middle" class="">3</text>
  <rect x="0" y="288" width="670" height="36" class="bg-row-odd" />
  <line x1="0" y1="324" x2="670" y2="324" class="border" />
  <text x="12" y="311.0" text-anchor="start" class="">Admiration</text>
  <text x="220.0" y="311.0" text-anchor="middle" class="">0.000</text>
  <text x="305.0" y="311.0" text-anchor="middle" class="">0.000</text>
  <text x="390.0" y="311.0" text-anchor="middle" class="">0.000</text>
  <text x="460.0" y="311.0" text-anchor="middle" class="">0</text>
  <text x="520.0" y="311.0" text-anchor="middle" class="">0</text>
  <text x="580.0" y="311.0" text-anchor="middle" class="">781</text>
  <text x="640.0" y="311.0" text-anchor="middle" class="">0</text>
  <rect x="0" y="324" width="670" height="36" class="bg-row-even" />
  <line x1="0" y1="360" x2="670" y2="360" class="border" />
  <text x="12" y="347.0" text-anchor="start" class="">Culpabilite</text>
  <text x="220.0" y="347.0" text-anchor="middle" class="">0.000</text>
  <text x="305.0" y="347.0" text-anchor="middle" class="">0.000</text>
  <text x="390.0" y="347.0" text-anchor="middle" class="">0.000</text>
  <text x="460.0" y="347.0" text-anchor="middle" class="">3</text>
  <text x="520.0" y="347.0" text-anchor="middle" class="">0</text>
  <text x="580.0" y="347.0" text-anchor="middle" class="">778</text>
  <text x="640.0" y="347.0" text-anchor="middle" class="">0</text>
  <rect x="0" y="360" width="670" height="36" class="bg-row-odd" />
  <line x1="0" y1="396" x2="670" y2="396" class="border" />
  <text x="12" y="383.0" text-anchor="start" class="">Embarras</text>
  <text x="220.0" y="383.0" text-anchor="middle" class="">0.133</text>
  <text x="305.0" y="383.0" text-anchor="middle" class="">0.071</text>
  <text x="390.0" y="383.0" text-anchor="middle" class="">1.000</text>
  <text x="460.0" y="383.0" text-anchor="middle" class="">0</text>
  <text x="520.0" y="383.0" text-anchor="middle" class="">26</text>
  <text x="580.0" y="383.0" text-anchor="middle" class="">753</text>
  <text x="640.0" y="383.0" text-anchor="middle" class="">2</text>
  <rect x="0" y="396" width="670" height="36" class="bg-row-even" />
  <line x1="0" y1="432" x2="670" y2="432" class="border" />
  <text x="12" y="419.0" text-anchor="start" class="">Fierte</text>
  <text x="220.0" y="419.0" text-anchor="middle" class="">0.857</text>
  <text x="305.0" y="419.0" text-anchor="middle" class="">0.750</text>
  <text x="390.0" y="419.0" text-anchor="middle" class="">1.000</text>
  <text x="460.0" y="419.0" text-anchor="middle" class="">0</text>
  <text x="520.0" y="419.0" text-anchor="middle" class="">1</text>
  <text x="580.0" y="419.0" text-anchor="middle" class="">777</text>
  <text x="640.0" y="419.0" text-anchor="middle" class="">3</text>
  <rect x="0" y="432" width="670" height="36" class="bg-row-odd" />
  <line x1="0" y1="468" x2="670" y2="468" class="border" />
  <text x="12" y="455.0" text-anchor="start" class="">Jalousie</text>
  <text x="220.0" y="455.0" text-anchor="middle" class="">0.000</text>
  <text x="305.0" y="455.0" text-anchor="middle" class="">0.000</text>
  <text x="390.0" y="455.0" text-anchor="middle" class="">0.000</text>
  <text x="460.0" y="455.0" text-anchor="middle" class="">6</text>
  <text x="520.0" y="455.0" text-anchor="middle" class="">0</text>
  <text x="580.0" y="455.0" text-anchor="middle" class="">775</text>
  <text x="640.0" y="455.0" text-anchor="middle" class="">0</text>
  <rect x="0" y="468" width="670" height="36" class="bg-row-even" />
  <line x1="0" y1="504" x2="670" y2="504" class="border" />
  <text x="12" y="491.0" text-anchor="start" class="">Autre</text>
  <text x="220.0" y="491.0" text-anchor="middle" class="">0.148</text>
  <text x="305.0" y="491.0" text-anchor="middle" class="">0.106</text>
  <text x="390.0" y="491.0" text-anchor="middle" class="">0.242</text>
  <text x="460.0" y="491.0" text-anchor="middle" class="">47</text>
  <text x="520.0" y="491.0" text-anchor="middle" class="">126</text>
  <text x="580.0" y="491.0" text-anchor="middle" class="">593</text>
  <text x="640.0" y="491.0" text-anchor="middle" class="">15</text>
  <rect x="0" y="504" width="670" height="36" class="bg-row-odd" />
  <line x1="0" y1="540" x2="670" y2="540" class="border" />
  <text x="12" y="527.0" text-anchor="start" class="">Comportementale</text>
  <text x="220.0" y="527.0" text-anchor="middle" class="">0.313</text>
  <text x="305.0" y="527.0" text-anchor="middle" class="">0.277</text>
  <text x="390.0" y="527.0" text-anchor="middle" class="">0.361</text>
  <text x="460.0" y="527.0" text-anchor="middle" class="">23</text>
  <text x="520.0" y="527.0" text-anchor="middle" class="">34</text>
  <text x="580.0" y="527.0" text-anchor="middle" class="">711</text>
  <text x="640.0" y="527.0" text-anchor="middle" class="">13</text>
  <rect x="0" y="540" width="670" height="36" class="bg-row-even" />
  <line x1="0" y1="576" x2="670" y2="576" class="border" />
  <text x="12" y="563.0" text-anchor="start" class="">Designee</text>
  <text x="220.0" y="563.0" text-anchor="middle" class="">0.500</text>
  <text x="305.0" y="563.0" text-anchor="middle" class="">0.449</text>
  <text x="390.0" y="563.0" text-anchor="middle" class="">0.564</text>
  <text x="460.0" y="563.0" text-anchor="middle" class="">24</text>
  <text x="520.0" y="563.0" text-anchor="middle" class="">38</text>
  <text x="580.0" y="563.0" text-anchor="middle" class="">688</text>
  <text x="640.0" y="563.0" text-anchor="middle" class="">31</text>
  <rect x="0" y="576" width="670" height="36" class="bg-row-odd" />
  <line x1="0" y1="612" x2="670" y2="612" class="border" />
  <text x="12" y="599.0" text-anchor="start" class="">Montree</text>
  <text x="220.0" y="599.0" text-anchor="middle" class="">0.515</text>
  <text x="305.0" y="599.0" text-anchor="middle" class="">0.480</text>
  <text x="390.0" y="599.0" text-anchor="middle" class="">0.555</text>
  <text x="460.0" y="599.0" text-anchor="middle" class="">134</text>
  <text x="520.0" y="599.0" text-anchor="middle" class="">181</text>
  <text x="580.0" y="599.0" text-anchor="middle" class="">299</text>
  <text x="640.0" y="599.0" text-anchor="middle" class="">167</text>
  <rect x="0" y="612" width="670" height="36" class="bg-row-even" />
  <line x1="0" y1="648" x2="670" y2="648" class="border" />
  <text x="12" y="635.0" text-anchor="start" class="">Suggeree</text>
  <text x="220.0" y="635.0" text-anchor="middle" class="">0.213</text>
  <text x="305.0" y="635.0" text-anchor="middle" class="">0.172</text>
  <text x="390.0" y="635.0" text-anchor="middle" class="">0.278</text>
  <text x="460.0" y="635.0" text-anchor="middle" class="">39</text>
  <text x="520.0" y="635.0" text-anchor="middle" class="">72</text>
  <text x="580.0" y="635.0" text-anchor="middle" class="">655</text>
  <text x="640.0" y="635.0" text-anchor="middle" class="">15</text>
  <rect x="0" y="648" width="670" height="36" class="bg-row-odd" />
  <line x1="0" y1="684" x2="670" y2="684" class="border" />
  <text x="12" y="671.0" text-anchor="start" class="">Base</text>
  <text x="220.0" y="671.0" text-anchor="middle" class="">0.548</text>
  <text x="305.0" y="671.0" text-anchor="middle" class="">0.633</text>
  <text x="390.0" y="671.0" text-anchor="middle" class="">0.483</text>
  <text x="460.0" y="671.0" text-anchor="middle" class="">188</text>
  <text x="520.0" y="671.0" text-anchor="middle" class="">102</text>
  <text x="580.0" y="671.0" text-anchor="middle" class="">315</text>
  <text x="640.0" y="671.0" text-anchor="middle" class="">176</text>
  <rect x="0" y="684" width="670" height="36" class="bg-row-even" />
  <line x1="0" y1="720" x2="670" y2="720" class="border" />
  <text x="12" y="707.0" text-anchor="start" class="">Complexe</text>
  <text x="220.0" y="707.0" text-anchor="middle" class="">0.298</text>
  <text x="305.0" y="707.0" text-anchor="middle" class="">0.212</text>
  <text x="390.0" y="707.0" text-anchor="middle" class="">0.500</text>
  <text x="460.0" y="707.0" text-anchor="middle" class="">7</text>
  <text x="520.0" y="707.0" text-anchor="middle" class="">26</text>
  <text x="580.0" y="707.0" text-anchor="middle" class="">741</text>
  <text x="640.0" y="707.0" text-anchor="middle" class="">7</text>
  <line x1="180" y1="0" x2="180" y2="720" class="border" />
  <line x1="260" y1="0" x2="260" y2="720" class="border" />
  <line x1="350" y1="0" x2="350" y2="720" class="border" />
  <line x1="430" y1="0" x2="430" y2="720" class="border" />
  <line x1="490" y1="0" x2="490" y2="720" class="border" />
  <line x1="550" y1="0" x2="550" y2="720" class="border" />
  <line x1="610" y1="0" x2="610" y2="720" class="border" />
  <rect x="0" y="0" width="670" height="720" class="border" fill="none" />
</svg>